# xmcd
#
# Track frame offsets:
# 150
# 18017
# 34850
# 42367
# 52650
# 60552
# 66362
# 74525
# 82740
# 90640
#
# Disc length: 1286 seconds
#
# Revision: 0
# Processed by: cddbd v1.4PL0 Copyright (c) Steve Scherf et al.
# Submitted via: Audion 3.0.2 (http://www.panic.com/audion/)
#
DISCID=7605040a
DTITLE=(hed) Planet Earth - Blackout Sampler
DYEAR=1900
DGENRE=
TTITLE0=Suck it up (album version)
TTITLE1=Blackout (album Version)
TTITLE2=Bury me (snippet)
TTITLE3=Dangerous (snippet)
TTITLE4=Get Away (snippet)
TTITLE5=Crazy life (snippet)
TTITLE6=Half a Man (snippet)
TTITLE7=Tthe only One (Snippet)
TTITLE8=other Side (Snippet)
TTITLE9=Flesh and Bone (snippet)
EXTD=
EXTT0=
EXTT1=
EXTT2=
EXTT3=
EXTT4=
EXTT5=
EXTT6=
EXTT7=
EXTT8=
EXTT9=
PLAYORDER=
